<?xml version="1.0" encoding="UTF-8"?>
<svg id="Layer_1" data-name="Layer 1" xmlns="http://www.w3.org/2000/svg" viewBox="0 0 40 40">
  <defs>
    <style>
      .cls-1 {
        fill: #556a79;
      }

      .cls-2 {
        fill: #2b4450;
      }

      .cls-3 {
        fill: #8199a3;
      }
    </style>
  </defs>
  <ellipse class="cls-2" cx="19.9" cy="35.88" rx="7.53" ry="3.69"/>
  <path class="cls-1" d="M19.84,37.33c-4.57,0-18.07-12.51-18.07-19.26s2.78-12.31,17.27-9.13h1.92c14.49-3.18,17.27,2.38,17.27,9.13s-13.5,19.26-18.07,19.26h-.33,0Z"/>
  <path class="cls-3" d="M24.72,18.52h-9.63c-2.19,0-3.97-1.78-3.97-3.97s1.78-3.97,3.97-3.97h9.63c2.19,0,3.97,1.78,3.97,3.97s-1.78,3.97-3.97,3.97Z"/>
  <path class="cls-3" d="M33.36,27.57l-.28-.73c-.15-.4-.66-.51-.96-.22-.82.8-2.29,2.04-3.43,2.04-1.68,0-1.19-3.91-3.51-3.3-1.74.46-3.78,1.14-4.69,1.45-.31.11-.65.11-.96,0-.91-.31-2.94-.99-4.69-1.45-2.32-.61-1.83,3.3-3.51,3.3-1.14,0-2.61-1.24-3.43-2.04-.31-.3-.81-.18-.96.22l-.28.73c4.1,4.86,9.75,9.25,12.7,9.72l.65.04.65-.04c2.95-.47,8.6-4.86,12.7-9.72Z"/>
  <g>
    <path class="cls-3" d="M25.65,8.04c0-.71-.58-1.29-1.29-1.29h-3.13v-1.24h1.43c.12,0,.23-.02.34-.05h.95v-1.24c0-.71-.58-1.29-1.29-1.29h-1.43v-1.21c0-.71-.58-1.29-1.29-1.29s-1.29.58-1.29,1.29v1.21h-1.58c-.71,0-1.29.58-1.29,1.29v1.24h.95c.11.03.22.05.34.05h1.58v1.24h-3.13c-.71,0-1.29.58-1.29,1.29v1.24h.95c.11.03.22.05.34.05h3.13v1.02l-.72-.19c-.69-.18-1.39.22-1.58.91-.18.69.22,1.39.91,1.58l1.39.37v1.76c0,.71.58,1.29,1.29,1.29s1.29-.58,1.29-1.29v-1.07l.58.15c.11.03.22.04.33.04.57,0,1.09-.38,1.24-.95.18-.69-.22-1.39-.91-1.58l-1.24-.33v-1.72h3.13c.12,0,.23-.02.34-.05h.95v-1.24h0Z"/>
    <path class="cls-2" d="M24.36,7.99h-3.13v-1.24h1.43c.71,0,1.29-.58,1.29-1.29s-.58-1.29-1.29-1.29h-1.43v-1.21c0-.71-.58-1.29-1.29-1.29s-1.29.58-1.29,1.29v1.21h-1.58c-.71,0-1.29.58-1.29,1.29s.58,1.29,1.29,1.29h1.58v1.24h-3.13c-.71,0-1.29.58-1.29,1.29s.58,1.29,1.29,1.29h3.13v1.02l-.72-.19c-.69-.18-1.39.22-1.58.91-.18.69.22,1.39.91,1.58l1.39.37v1.76c0,.71.58,1.29,1.29,1.29s1.29-.58,1.29-1.29v-1.07l.58.15c.11.03.22.04.33.04.57,0,1.09-.38,1.24-.95.18-.69-.22-1.39-.91-1.58l-1.24-.33v-1.72h3.13c.71,0,1.29-.58,1.29-1.29s-.58-1.29-1.29-1.29h0Z"/>
  </g>
</svg>