<?xml version="1.0" encoding="UTF-8"?>
<svg id="Layer_1" data-name="Layer 1" xmlns="http://www.w3.org/2000/svg" viewBox="0 0 40 40">
  <defs>
    <style>
      .cls-1 {
        fill: none;
        stroke: #2b4450;
        stroke-linecap: round;
        stroke-miterlimit: 10;
        stroke-width: 3px;
      }

      .cls-2 {
        fill: #556a79;
      }

      .cls-3 {
        fill: #2b4450;
      }

      .cls-4 {
        fill: #8199a3;
      }
    </style>
  </defs>
  <path class="cls-4" d="M26.01,1.12c-2.76,0-5.67.98-8.42,2.45-1.43-.49-2.93-1.2-3.66-2.18-1.65-2.22-1.81,2.47-1.65,3.7.06.44.32.98.64,1.49-4.13,3.14-7.31,6.83-8.14,8.79,0,0,.93,6.52,4.95,6.52,3.13,0,8.56-6.71,8.56-6.71-.37.1.35-.18,0,0l16.94-.15V6.73s-.2-5.62-9.23-5.62h.01Z"/>
  <path class="cls-2" d="M26.01,6.29c-1.95,0-3.87.49-5.7,1.29-1.62-.48-3.51-1.26-4.36-2.4-1.65-2.22-1.81,2.47-1.65,3.7.07.54.46,1.24.87,1.85-4.19,3.32-7.32,7.63-8.23,9.8,0,0,.6,2.21,4.61,2.21,2.22,0,4.67-1.19,5.91-1.89-2.64,1.8-4.5,5.49-4.5,8.92,0,4.21.8,9.43,11.03,9.43s11.23-6.42,11.23-6.42V11.91s-.2-5.62-9.23-5.62c0,0,.02,0,.02,0ZM18.3,20.35c-.37.1.35-.18,0,0h0Z"/>
  <ellipse class="cls-3" cx="20.02" cy="14.69" rx="1.52" ry="2.25"/>
  <path class="cls-1" d="M17.26,20.99s6.55,5.77,12.93-.61"/>
</svg>