<?xml version="1.0" encoding="UTF-8"?>
<svg id="Layer_1" data-name="Layer 1" xmlns="http://www.w3.org/2000/svg" viewBox="0 0 40 40">
  <defs>
    <style>
      .cls-1 {
        fill: #556a79;
      }

      .cls-2 {
        fill: #2b4450;
      }

      .cls-3 {
        fill: #8199a3;
      }
    </style>
  </defs>
  <g>
    <path class="cls-2" d="M19.72,20.1l-6.86.91L3.72,11.3l-3.25-.66s1.93-3.3,7.21-1.32c0,0-.91-6.81,1.12-6.81s6.35,2.85,6.35,2.85c0,0,2.69-4.88,4.57-4.88h.58c1.88,0,4.57,4.88,4.57,4.88,0,0,4.32-2.85,6.35-2.85s1.12,6.81,1.12,6.81c5.28-1.98,7.21,1.32,7.21,1.32l-3.25.66-9.15,9.7-6.86-.91h-.58s.01,0,.01,0Z"/>
    <ellipse class="cls-3" cx="20.01" cy="15.74" rx="10.35" ry="6.32"/>
    <path class="cls-2" d="M28.43,31.49v-4.12l-.27-3.93H11.59v8.05c.05,1.18,0,1.93,0,1.93,0,0,1.03,5.79,8.13,6.09h.58c7.1-.32,8.13-6.1,8.13-6.1,0,0-.05-.74,0-1.93h0Z"/>
    <path class="cls-1" d="M38.18,10.64c-6.56,0-11.94,8.27-11.94,8.27,0,0-.76-3.37-5.95-3.61v-.02c-.1,0-.19,0-.29.01-.1,0-.19-.01-.29-.01v.02c-5.18.24-5.95,3.61-5.95,3.61,0,0-5.38-8.27-11.94-8.27-3.21,0-.44-.24,4.98,5.18,5.42,5.42,4.77,14.33,4.77,14.33,0,0,1.03,5.79,8.13,6.09h.58c7.1-.32,8.13-6.1,8.13-6.1,0,0-.65-8.9,4.77-14.33,5.42-5.42,8.19-5.18,4.98-5.18h.02,0Z"/>
  </g>
  <path class="cls-3" d="M23.26,30.82v-6.04c0-.55-.25-1.07-.68-1.41l-1.44-1.15c-.66-.53-1.59-.53-2.25,0l-1.44,1.15c-.43.34-.68.86-.68,1.41v6.04c0,.55.25,1.07.68,1.41l1.44,1.15c.66.53,1.59.53,2.25,0l1.44-1.15c.43-.34.68-.86.68-1.41Z"/>
</svg>