<?xml version="1.0" encoding="UTF-8"?>
<svg id="Layer_1" xmlns="http://www.w3.org/2000/svg" version="1.1" viewBox="0 0 40 40">
  <!-- Generator: Adobe Illustrator 29.8.5, SVG Export Plug-In . SVG Version: 2.1.1 Build 2)  -->
  <defs>
    <style>
      .st0 {
        fill: #a0b5c1;
      }

      .st1 {
        fill: none;
        stroke: #2b4450;
        stroke-linecap: round;
        stroke-miterlimit: 10;
        stroke-width: 3px;
      }

      .st2 {
        fill: #6b8089;
      }

      .st3 {
        fill: #556a79;
      }

      .st4 {
        fill: #2b4450;
      }

      .st5 {
        fill: #d5e6f0;
      }

      .st6 {
        fill: #8199a3;
      }
    </style>
  </defs>
  <g>
    <ellipse class="st2" cx="19.89" cy="35.9" rx="7.53" ry="3.69"/>
    <path class="st0" d="M19.83,37.35c-4.57,0-18.07-12.51-18.07-19.26s2.78-12.31,17.27-9.13h1.92c14.49-3.18,17.27,2.38,17.27,9.13s-13.5,19.26-18.07,19.26h-.33,0Z"/>
    <path class="st5" d="M24.71,18.54h-9.63c-2.19,0-3.97-1.78-3.97-3.97s1.78-3.97,3.97-3.97h9.63c2.19,0,3.97,1.78,3.97,3.97s-1.78,3.97-3.97,3.97Z"/>
    <path class="st5" d="M33.35,27.59l-.28-.73c-.15-.4-.66-.51-.96-.22-.82.8-2.29,2.04-3.43,2.04-1.68,0-1.19-3.91-3.51-3.3-1.74.46-3.78,1.14-4.69,1.45-.31.11-.65.11-.96,0-.91-.31-2.94-.99-4.69-1.45-2.32-.61-1.83,3.3-3.51,3.3-1.14,0-2.61-1.24-3.43-2.04-.31-.3-.81-.18-.96.22l-.28.73c4.1,4.86,9.75,9.25,12.7,9.72l.65.04.65-.04c2.95-.47,8.6-4.86,12.7-9.72Z"/>
    <path class="st5" d="M25.64,8.06c0-.71-.58-1.29-1.29-1.29h-3.13v-1.24h1.43c.12,0,.23-.02.34-.05h.95v-1.24c0-.71-.58-1.29-1.29-1.29h-1.43v-1.21c0-.71-.58-1.29-1.29-1.29s-1.29.58-1.29,1.29v1.21h-1.58c-.71,0-1.29.58-1.29,1.29v1.24h.95c.11.03.22.05.34.05h1.58v1.24h-3.13c-.71,0-1.29.58-1.29,1.29v1.24h.95c.11.03.22.05.34.05h3.13v1.02l-.72-.19c-.69-.18-1.39.22-1.58.91-.18.69.22,1.39.91,1.58l1.39.37v1.76c0,.71.58,1.29,1.29,1.29s1.29-.58,1.29-1.29v-1.07l.58.15c.11.03.22.04.33.04.57,0,1.09-.38,1.24-.95.18-.69-.22-1.39-.91-1.58l-1.24-.33v-1.72h3.13c.12,0,.23-.02.34-.05h.95v-1.24h0Z"/>
    <path class="st2" d="M24.35,8.01h-3.13v-1.24h1.43c.71,0,1.29-.58,1.29-1.29s-.58-1.29-1.29-1.29h-1.43v-1.21c0-.71-.58-1.29-1.29-1.29s-1.29.58-1.29,1.29v1.21h-1.58c-.71,0-1.29.58-1.29,1.29s.58,1.29,1.29,1.29h1.58v1.24h-3.13c-.71,0-1.29.58-1.29,1.29s.58,1.29,1.29,1.29h3.13v1.02l-.72-.19c-.69-.18-1.39.22-1.58.91-.18.69.22,1.39.91,1.58l1.39.37v1.76c0,.71.58,1.29,1.29,1.29s1.29-.58,1.29-1.29v-1.07l.58.15c.11.03.22.04.33.04.57,0,1.09-.38,1.24-.95.18-.69-.22-1.39-.91-1.58l-1.24-.33v-1.72h3.13c.71,0,1.29-.58,1.29-1.29s-.58-1.29-1.29-1.29h0Z"/>
  </g>
  <g>
    <path class="st2" d="M19.71,20.12l-6.86.91L3.71,11.33l-3.25-.66s1.93-3.3,7.21-1.32c0,0-.91-6.81,1.12-6.81s6.35,2.85,6.35,2.85c0,0,2.69-4.88,4.57-4.88h.58c1.88,0,4.57,4.88,4.57,4.88,0,0,4.32-2.85,6.35-2.85s1.12,6.81,1.12,6.81c5.28-1.98,7.21,1.32,7.21,1.32l-3.25.66-9.15,9.7-6.86-.91h-.58.01Z"/>
    <ellipse class="st5" cx="20" cy="15.77" rx="10.35" ry="6.32"/>
    <path class="st2" d="M28.42,31.52v-4.12l-.27-3.93H11.58v8.05c.05,1.18,0,1.93,0,1.93,0,0,1.03,5.79,8.13,6.09h0c.1,0,.19,0,.29,0h.29c7.1-.32,8.13-6.1,8.13-6.1,0,0-.05-.74,0-1.93h0Z"/>
    <path class="st0" d="M38.17,10.67c-6.56,0-11.94,8.27-11.94,8.27,0,0-.76-3.37-5.95-3.61v-.02c-.1,0-.19,0-.29.01-.1,0-.19-.01-.29-.01v.02c-5.18.24-5.95,3.61-5.95,3.61,0,0-5.38-8.27-11.94-8.27-3.21,0-.44-.24,4.98,5.18,5.42,5.42,4.77,14.33,4.77,14.33,0,0,1.03,5.79,8.13,6.09h0c.1,0,.19,0,.29,0h.29c7.1-.32,8.13-6.1,8.13-6.1,0,0-.65-8.9,4.77-14.33,5.42-5.42,8.19-5.18,4.98-5.18h.02Z"/>
    <path class="st5" d="M23.25,30.85v-6.04c0-.55-.25-1.07-.68-1.41l-1.44-1.15c-.66-.53-1.59-.53-2.25,0l-1.44,1.15c-.43.34-.68.86-.68,1.41v6.04c0,.55.25,1.07.68,1.41l1.44,1.15c.66.53,1.59.53,2.25,0l1.44-1.15c.43-.34.68-.86.68-1.41Z"/>
  </g>
  <g>
    <ellipse class="st2" cx="20" cy="35.83" rx="7.53" ry="3.14"/>
    <path class="st2" d="M33.37,20.31l-1.8-2.85c-.54-.85-1.66-1.12-2.53-.6l-9.05,5.45,4.11,2.85s9.27-4.85,9.27-4.85Z"/>
    <path class="st0" d="M23.4,22.54l3.93-8.44c.51-1.1.35-2.4-.42-3.34l-3.92-4.79h-5.18l-9.04,11.53c-2.15,2.74-3.22,6.22-2.77,9.67.59,4.49,3.64,9.48,14.3,9.48,16.14,0,14.17-12.25,13.07-16.34-.19-.7-.96-1.06-1.63-.77l-7.87,3.48c-.31.14-.62-.18-.48-.49h.01Z"/>
    <path class="st5" d="M13.48,22.02c-.46,0-.93-.14-1.33-.43-1.01-.74-1.24-2.15-.5-3.17l4.25-5.85c.74-1.01,2.15-1.24,3.17-.5,1.01.74,1.24,2.15.5,3.17l-4.25,5.85c-.44.61-1.14.94-1.84.94h0Z"/>
    <path class="st2" d="M17.42,6.67c0,.67,1.29,2.01,2.97,2.01s3.05-1.35,3.05-2.02-1.36-1.22-3.05-1.22-2.97.55-2.97,1.22h0Z"/>
    <ellipse class="st0" cx="20.46" cy="4.14" rx="3.88" ry="3.04"/>
    <ellipse class="st5" cx="20.46" cy="3.33" rx="2.85" ry="2.24"/>
  </g>
  <g>
    <path class="st5" d="M25.99,1.16c-2.76,0-5.67.98-8.42,2.45-1.43-.49-2.93-1.2-3.66-2.18-1.65-2.22-1.81,2.47-1.65,3.7.06.44.32.98.64,1.49-4.13,3.14-7.31,6.83-8.14,8.79,0,0,.93,6.52,4.95,6.52,3.13,0,8.56-6.71,8.56-6.71-.37.1.35-.18,0,0l16.94-.15V6.77s-.2-5.62-9.23-5.62h.01Z"/>
    <path class="st0" d="M25.99,6.33c-1.95,0-3.87.49-5.7,1.29-1.62-.48-3.51-1.26-4.36-2.4-1.65-2.22-1.81,2.47-1.65,3.7.07.54.46,1.24.87,1.85-4.19,3.32-7.32,7.63-8.23,9.8,0,0,.6,2.21,4.61,2.21,2.22,0,4.67-1.19,5.91-1.89-2.64,1.8-4.5,5.49-4.5,8.92,0,4.21.8,9.43,11.03,9.43s11.23-6.42,11.23-6.42V11.95s-.2-5.62-9.23-5.62h.02ZM18.28,20.39c-.37.1.35-.18,0,0h0Z"/>
    <ellipse class="st2" cx="20" cy="14.73" rx="1.52" ry="2.25"/>
    <path class="st2" d="M23.55,24.56c-3.02,0-5.63-1.42-7.06-2.68-.47-.41-.51-1.13-.1-1.6.41-.47,1.13-.52,1.6-.1.25.21,5.85,4.97,11.38-.56.44-.44,1.16-.44,1.6,0s.44,1.16,0,1.6c-2.47,2.47-5.07,3.34-7.43,3.34h.01Z"/>
  </g>
  <g>
    <path class="st0" d="M9.92,23.09h20.2v5.3c0,5.57-4.53,10.1-10.1,10.1h0c-5.57,0-10.1-4.53-10.1-10.1v-5.3h0Z"/>
    <ellipse class="st0" cx="20.01" cy="16.44" rx="14.39" ry="11.7"/>
    <path class="st5" d="M23.49,5.86c-.12,0-.23-.01-.35-.03-2-.36-4.21-.37-6.23-.04-1.08.18-2.1-.55-2.28-1.64-.18-1.08.55-2.1,1.64-2.28,2.46-.41,5.13-.39,7.58.05,1.08.19,1.8,1.23,1.6,2.3-.17.96-1.01,1.63-1.95,1.63h-.01Z"/>
    <path class="st5" d="M9.61,16.19c-.47,0-.94-.17-1.32-.51-1.76-1.58-2.69-3.47-2.69-5.49,0-2.27,1.22-4.43,3.43-6.09.88-.66,2.12-.48,2.78.4s.48,2.12-.4,2.78c-.84.63-1.84,1.65-1.84,2.91,0,1.08.75,1.97,1.37,2.53.82.73.89,1.99.16,2.8-.39.44-.94.66-1.48.66h0Z"/>
    <path class="st5" d="M30.83,15.54c-.47,0-.93-.16-1.31-.5-.82-.72-.9-1.98-.18-2.8.59-.67.89-1.36.89-2.04,0-1.16-.85-2.11-1.57-2.7-.85-.7-.96-1.95-.26-2.8.7-.85,1.95-.96,2.8-.26,1.97,1.63,3.01,3.62,3.01,5.76,0,1.66-.65,3.27-1.88,4.67-.39.45-.94.67-1.49.67h0Z"/>
    <ellipse class="st2" cx="20.01" cy="14.27" rx="6.88" ry="4.56"/>
    <path class="st5" d="M19.9,20.42c-1.64,0-3.25-.17-4.79-.52-1.07-.24-1.74-1.3-1.51-2.37.24-1.07,1.3-1.74,2.37-1.51,1.25.28,2.57.42,3.92.42,1.57,0,3.09-.19,4.5-.56,1.06-.28,2.15.35,2.43,1.41.28,1.06-.35,2.15-1.41,2.43-1.75.46-3.6.69-5.52.69h.01Z"/>
    <path class="st2" d="M19.75,29.95c-2.92,0-5.86-.9-8.81-2.7-.53-.33-.7-1.03-.38-1.56.33-.53,1.03-.7,1.56-.38,5.42,3.31,10.6,3.16,15.84-.48.51-.36,1.22-.23,1.58.28s.23,1.22-.28,1.58c-3.13,2.17-6.3,3.26-9.51,3.26Z"/>
  </g>
  <g>
    <path class="st0" d="M28.35,24.24l-3.12-5.32c2.24-1.61,3.7-4.23,3.7-7.2,0-4.91-3.98-8.88-8.88-8.88s-8.88,3.98-8.88,8.88c0,2.94,1.44,5.55,3.65,7.16l-3.14,5.36c-1.14,1.95-1.51,4.27-.95,6.46.78,3.02,3.02,6.53,9.26,6.53h.08c6.24,0,8.48-3.51,9.26-6.53.56-2.19.2-4.51-.95-6.46h-.03Z"/>
    <path class="st2" d="M20,21.74c-1.36,0-2.69-.27-3.93-.8-.58-.25-.84-.91-.6-1.49.25-.58.91-.84,1.49-.6,1.92.82,4.16.82,6.09,0,.58-.25,1.24.02,1.49.6s-.02,1.24-.6,1.49c-1.25.53-2.57.8-3.94.8Z"/>
    <path class="st5" d="M17.91,7.23h0c-.97,0-1.87.52-2.35,1.36h0c-.49.84-.49,1.88,0,2.72h0c.49.84,1.38,1.36,2.35,1.36h0c.97,0,1.87-.52,2.35-1.36h0c.49-.84.49-1.88,0-2.72h0c-.49-.84-1.38-1.36-2.35-1.36Z"/>
  </g>
  <g>
    <ellipse class="st4" cx="19.89" cy="35.9" rx="7.53" ry="3.69"/>
    <path class="st3" d="M19.83,37.35c-4.57,0-18.07-12.51-18.07-19.26s2.78-12.31,17.27-9.13h1.92c14.49-3.18,17.27,2.38,17.27,9.13s-13.5,19.26-18.07,19.26h-.33,0Z"/>
    <path class="st6" d="M24.71,18.54h-9.63c-2.19,0-3.97-1.78-3.97-3.97s1.78-3.97,3.97-3.97h9.63c2.19,0,3.97,1.78,3.97,3.97s-1.78,3.97-3.97,3.97Z"/>
    <path class="st6" d="M33.35,27.59l-.28-.73c-.15-.4-.66-.51-.96-.22-.82.8-2.29,2.04-3.43,2.04-1.68,0-1.19-3.91-3.51-3.3-1.74.46-3.78,1.14-4.69,1.45-.31.11-.65.11-.96,0-.91-.31-2.94-.99-4.69-1.45-2.32-.61-1.83,3.3-3.51,3.3-1.14,0-2.61-1.24-3.43-2.04-.31-.3-.81-.18-.96.22l-.28.73c4.1,4.86,9.75,9.25,12.7,9.72l.65.04.65-.04c2.95-.47,8.6-4.86,12.7-9.72Z"/>
    <g>
      <path class="st6" d="M25.64,8.06c0-.71-.58-1.29-1.29-1.29h-3.13v-1.24h1.43c.12,0,.23-.02.34-.05h.95v-1.24c0-.71-.58-1.29-1.29-1.29h-1.43v-1.21c0-.71-.58-1.29-1.29-1.29s-1.29.58-1.29,1.29v1.21h-1.58c-.71,0-1.29.58-1.29,1.29v1.24h.95c.11.03.22.05.34.05h1.58v1.24h-3.13c-.71,0-1.29.58-1.29,1.29v1.24h.95c.11.03.22.05.34.05h3.13v1.02l-.72-.19c-.69-.18-1.39.22-1.58.91-.18.69.22,1.39.91,1.58l1.39.37v1.76c0,.71.58,1.29,1.29,1.29s1.29-.58,1.29-1.29v-1.07l.58.15c.11.03.22.04.33.04.57,0,1.09-.38,1.24-.95.18-.69-.22-1.39-.91-1.58l-1.24-.33v-1.72h3.13c.12,0,.23-.02.34-.05h.95v-1.24h0Z"/>
      <path class="st4" d="M24.35,8.01h-3.13v-1.24h1.43c.71,0,1.29-.58,1.29-1.29s-.58-1.29-1.29-1.29h-1.43v-1.21c0-.71-.58-1.29-1.29-1.29s-1.29.58-1.29,1.29v1.21h-1.58c-.71,0-1.29.58-1.29,1.29s.58,1.29,1.29,1.29h1.58v1.24h-3.13c-.71,0-1.29.58-1.29,1.29s.58,1.29,1.29,1.29h3.13v1.02l-.72-.19c-.69-.18-1.39.22-1.58.91-.18.69.22,1.39.91,1.58l1.39.37v1.76c0,.71.58,1.29,1.29,1.29s1.29-.58,1.29-1.29v-1.07l.58.15c.11.03.22.04.33.04.57,0,1.09-.38,1.24-.95.18-.69-.22-1.39-.91-1.58l-1.24-.33v-1.72h3.13c.71,0,1.29-.58,1.29-1.29s-.58-1.29-1.29-1.29h0Z"/>
    </g>
  </g>
  <g>
    <g>
      <path class="st4" d="M19.71,20.12l-6.86.91L3.71,11.33l-3.25-.66s1.93-3.3,7.21-1.32c0,0-.91-6.81,1.12-6.81s6.35,2.85,6.35,2.85c0,0,2.69-4.88,4.57-4.88h.58c1.88,0,4.57,4.88,4.57,4.88,0,0,4.32-2.85,6.35-2.85s1.12,6.81,1.12,6.81c5.28-1.98,7.21,1.32,7.21,1.32l-3.25.66-9.15,9.7-6.86-.91h-.58.01Z"/>
      <ellipse class="st6" cx="20" cy="15.77" rx="10.35" ry="6.32"/>
      <path class="st4" d="M28.42,31.52v-4.12l-.27-3.93H11.58v8.05c.05,1.18,0,1.93,0,1.93,0,0,1.03,5.79,8.13,6.09h0c.1,0,.19,0,.29,0h.29c7.1-.32,8.13-6.1,8.13-6.1,0,0-.05-.74,0-1.93h0Z"/>
      <path class="st3" d="M38.17,10.67c-6.56,0-11.94,8.27-11.94,8.27,0,0-.76-3.37-5.95-3.61v-.02c-.1,0-.19,0-.29.01-.1,0-.19-.01-.29-.01v.02c-5.18.24-5.95,3.61-5.95,3.61,0,0-5.38-8.27-11.94-8.27-3.21,0-.44-.24,4.98,5.18,5.42,5.42,4.77,14.33,4.77,14.33,0,0,1.03,5.79,8.13,6.09h0c.1,0,.19,0,.29,0h.29c7.1-.32,8.13-6.1,8.13-6.1,0,0-.65-8.9,4.77-14.33,5.42-5.42,8.19-5.18,4.98-5.18h.02Z"/>
    </g>
    <path class="st6" d="M23.25,30.85v-6.04c0-.55-.25-1.07-.68-1.41l-1.44-1.15c-.66-.53-1.59-.53-2.25,0l-1.44,1.15c-.43.34-.68.86-.68,1.41v6.04c0,.55.25,1.07.68,1.41l1.44,1.15c.66.53,1.59.53,2.25,0l1.44-1.15c.43-.34.68-.86.68-1.41Z"/>
  </g>
  <g>
    <ellipse class="st4" cx="20" cy="35.83" rx="7.53" ry="3.14"/>
    <path class="st4" d="M33.37,20.31l-1.8-2.85c-.54-.85-1.66-1.12-2.53-.6l-9.05,5.45,4.11,2.85s9.27-4.85,9.27-4.85Z"/>
    <path class="st3" d="M23.4,22.54l3.93-8.44c.51-1.1.35-2.4-.42-3.34l-3.92-4.79h-5.18l-9.04,11.53c-2.15,2.74-3.22,6.22-2.77,9.67.59,4.49,3.64,9.48,14.3,9.48,16.14,0,14.17-12.25,13.07-16.34-.19-.7-.96-1.06-1.63-.77l-7.87,3.48c-.31.14-.62-.18-.48-.49h.01Z"/>
    <path class="st6" d="M13.48,22.02c-.46,0-.93-.14-1.33-.43-1.01-.74-1.24-2.15-.5-3.17l4.25-5.85c.74-1.01,2.15-1.24,3.17-.5,1.01.74,1.24,2.15.5,3.17l-4.25,5.85c-.44.61-1.14.94-1.84.94h0Z"/>
    <path class="st4" d="M17.42,6.67c0,.67,1.29,2.01,2.97,2.01s3.05-1.35,3.05-2.02-1.36-1.22-3.05-1.22-2.97.55-2.97,1.22h0Z"/>
    <ellipse class="st3" cx="20.46" cy="4.14" rx="3.88" ry="3.04"/>
    <ellipse class="st6" cx="20.46" cy="3.33" rx="2.85" ry="2.24"/>
  </g>
  <g>
    <path class="st6" d="M25.99,1.16c-2.76,0-5.67.98-8.42,2.45-1.43-.49-2.93-1.2-3.66-2.18-1.65-2.22-1.81,2.47-1.65,3.7.06.44.32.98.64,1.49-4.13,3.14-7.31,6.83-8.14,8.79,0,0,.93,6.52,4.95,6.52,3.13,0,8.56-6.71,8.56-6.71-.37.1.35-.18,0,0l16.94-.15V6.77s-.2-5.62-9.23-5.62h.01Z"/>
    <path class="st3" d="M25.99,6.33c-1.95,0-3.87.49-5.7,1.29-1.62-.48-3.51-1.26-4.36-2.4-1.65-2.22-1.81,2.47-1.65,3.7.07.54.46,1.24.87,1.85-4.19,3.32-7.32,7.63-8.23,9.8,0,0,.6,2.21,4.61,2.21,2.22,0,4.67-1.19,5.91-1.89-2.64,1.8-4.5,5.49-4.5,8.92,0,4.21.8,9.43,11.03,9.43s11.23-6.42,11.23-6.42V11.95s-.2-5.62-9.23-5.62h.02ZM18.28,20.39c-.37.1.35-.18,0,0h0Z"/>
    <ellipse class="st4" cx="20" cy="14.73" rx="1.52" ry="2.25"/>
    <path class="st1" d="M17.24,21.03s6.55,5.77,12.93-.61"/>
  </g>
  <g>
    <path class="st3" d="M9.92,23.09h20.2v5.3c0,5.57-4.53,10.1-10.1,10.1h0c-5.57,0-10.1-4.53-10.1-10.1v-5.3h0Z"/>
    <ellipse class="st3" cx="20.01" cy="16.44" rx="14.39" ry="11.7"/>
    <path class="st6" d="M23.49,5.86c-.12,0-.23-.01-.35-.03-2-.36-4.21-.37-6.23-.04-1.08.18-2.1-.55-2.28-1.64-.18-1.08.55-2.1,1.64-2.28,2.46-.41,5.13-.39,7.58.05,1.08.19,1.8,1.23,1.6,2.3-.17.96-1.01,1.63-1.95,1.63h-.01Z"/>
    <path class="st6" d="M9.61,16.19c-.47,0-.94-.17-1.32-.51-1.76-1.58-2.69-3.47-2.69-5.49,0-2.27,1.22-4.43,3.43-6.09.88-.66,2.12-.48,2.78.4s.48,2.12-.4,2.78c-.84.63-1.84,1.65-1.84,2.91,0,1.08.75,1.97,1.37,2.53.82.73.89,1.99.16,2.8-.39.44-.94.66-1.48.66h0Z"/>
    <path class="st6" d="M30.83,15.54c-.47,0-.93-.16-1.31-.5-.82-.72-.9-1.98-.18-2.8.59-.67.89-1.36.89-2.04,0-1.16-.85-2.11-1.57-2.7-.85-.7-.96-1.95-.26-2.8.7-.85,1.95-.96,2.8-.26,1.97,1.63,3.01,3.62,3.01,5.76,0,1.66-.65,3.27-1.88,4.67-.39.45-.94.67-1.49.67h0Z"/>
    <ellipse class="st4" cx="20.01" cy="14.27" rx="6.88" ry="4.56"/>
    <path class="st6" d="M19.9,20.42c-1.64,0-3.25-.17-4.79-.52-1.07-.24-1.74-1.3-1.51-2.37.24-1.07,1.3-1.74,2.37-1.51,1.25.28,2.57.42,3.92.42,1.57,0,3.09-.19,4.5-.56,1.06-.28,2.15.35,2.43,1.41.28,1.06-.35,2.15-1.41,2.43-1.75.46-3.6.69-5.52.69h.01Z"/>
    <path class="st1" d="M28.62,25.76c-5.78,4.02-11.52,3.92-17.08.52"/>
  </g>
  <g>
    <path class="st3" d="M28.35,24.24l-3.12-5.32c2.24-1.61,3.7-4.23,3.7-7.2,0-4.91-3.98-8.88-8.88-8.88s-8.88,3.98-8.88,8.88c0,2.94,1.44,5.55,3.65,7.16l-3.14,5.36c-1.14,1.95-1.51,4.27-.95,6.46.78,3.02,3.02,6.53,9.26,6.53h.08c6.24,0,8.48-3.51,9.26-6.53.56-2.19.2-4.51-.95-6.46h-.03Z"/>
    <path class="st4" d="M20,21.74c-1.36,0-2.69-.27-3.93-.8-.58-.25-.84-.91-.6-1.49.25-.58.91-.84,1.49-.6,1.92.82,4.16.82,6.09,0,.58-.25,1.24.02,1.49.6s-.02,1.24-.6,1.49c-1.25.53-2.57.8-3.94.8Z"/>
    <path class="st6" d="M17.91,7.23h0c-.97,0-1.87.52-2.35,1.36h0c-.49.84-.49,1.88,0,2.72h0c.49.84,1.38,1.36,2.35,1.36h0c.97,0,1.87-.52,2.35-1.36h0c.49-.84.49-1.88,0-2.72h0c-.49-.84-1.38-1.36-2.35-1.36Z"/>
  </g>
</svg>