<?xml version="1.0" encoding="UTF-8"?>
<svg id="Layer_1" data-name="Layer 1" xmlns="http://www.w3.org/2000/svg" viewBox="0 0 40 40">
  <defs>
    <style>
      .cls-1 {
        fill: #a0b5c1;
      }

      .cls-2 {
        fill: #6b8089;
      }

      .cls-3 {
        fill: #d5e6f0;
      }
    </style>
  </defs>
  <ellipse class="cls-2" cx="20.01" cy="35.8" rx="7.53" ry="3.14"/>
  <path class="cls-2" d="M33.38,20.28l-1.8-2.85c-.54-.85-1.66-1.12-2.53-.6l-9.05,5.45,4.11,2.85s9.27-4.85,9.27-4.85Z"/>
  <path class="cls-1" d="M23.41,22.51l3.93-8.44c.51-1.1.35-2.4-.42-3.34l-3.92-4.79h-5.18l-9.04,11.53c-2.15,2.74-3.22,6.22-2.77,9.67.59,4.49,3.64,9.48,14.3,9.48,16.14,0,14.17-12.25,13.07-16.34-.19-.7-.96-1.06-1.63-.77l-7.87,3.48c-.31.14-.62-.18-.48-.49h.01Z"/>
  <path class="cls-3" d="M13.49,21.99c-.46,0-.93-.14-1.33-.43-1.01-.74-1.24-2.15-.5-3.17l4.25-5.85c.74-1.01,2.15-1.24,3.17-.5,1.01.74,1.24,2.15.5,3.17l-4.25,5.85c-.44.61-1.14.94-1.84.94h0Z"/>
  <path class="cls-2" d="M17.43,6.64c0,.67,1.29,2.01,2.97,2.01s3.05-1.35,3.05-2.02-1.36-1.22-3.05-1.22-2.97.55-2.97,1.22h0Z"/>
  <ellipse class="cls-1" cx="20.47" cy="4.11" rx="3.88" ry="3.04"/>
  <ellipse class="cls-3" cx="20.47" cy="3.3" rx="2.85" ry="2.24"/>
</svg>