<?xml version="1.0" encoding="UTF-8"?>
<svg id="Layer_1" data-name="Layer 1" xmlns="http://www.w3.org/2000/svg" viewBox="0 0 40 40">
  <defs>
    <style>
      .cls-1 {
        fill: #a0b5c1;
      }

      .cls-2 {
        fill: #6b8089;
      }

      .cls-3 {
        fill: #d5e6f0;
      }
    </style>
  </defs>
  <path class="cls-1" d="M28.32,24.2l-3.12-5.32c2.24-1.61,3.7-4.23,3.7-7.2,0-4.91-3.98-8.88-8.88-8.88s-8.88,3.98-8.88,8.88c0,2.94,1.44,5.55,3.65,7.16l-3.14,5.36c-1.14,1.95-1.51,4.27-.95,6.46.78,3.02,3.02,6.53,9.26,6.53h.08c6.24,0,8.48-3.51,9.26-6.53.56-2.19.2-4.51-.95-6.46,0,0-.03,0-.03,0Z"/>
  <path class="cls-2" d="M19.97,21.7c-1.36,0-2.69-.27-3.93-.8-.58-.25-.84-.91-.6-1.49.25-.58.91-.84,1.49-.6,1.92.82,4.16.82,6.09,0,.58-.25,1.24.02,1.49.6s-.02,1.24-.6,1.49c-1.25.53-2.57.8-3.94.8Z"/>
  <path class="cls-3" d="M17.88,7.2h0c-.97,0-1.87.52-2.35,1.36h0c-.49.84-.49,1.88,0,2.72h0c.49.84,1.38,1.36,2.35,1.36h0c.97,0,1.87-.52,2.35-1.36h0c.49-.84.49-1.88,0-2.72h0c-.49-.84-1.38-1.36-2.35-1.36Z"/>
</svg>