<?xml version="1.0" encoding="UTF-8"?>
<svg id="Layer_1" data-name="Layer 1" xmlns="http://www.w3.org/2000/svg" viewBox="0 0 40 40">
  <defs>
    <style>
      .cls-1 {
        fill: #a0b5c1;
      }

      .cls-2 {
        fill: #6b8089;
      }

      .cls-3 {
        fill: #d5e6f0;
      }
    </style>
  </defs>
  <path class="cls-1" d="M9.92,23.06h20.2v5.3c0,5.57-4.53,10.1-10.1,10.1h0c-5.57,0-10.1-4.53-10.1-10.1v-5.3h0Z"/>
  <ellipse class="cls-1" cx="20.01" cy="16.41" rx="14.39" ry="11.7"/>
  <path class="cls-3" d="M23.49,5.83c-.12,0-.23-.01-.35-.03-2-.36-4.21-.37-6.23-.04-1.08.18-2.1-.55-2.28-1.64-.18-1.08.55-2.1,1.64-2.28,2.46-.41,5.13-.39,7.58.05,1.08.19,1.8,1.23,1.6,2.3-.17.96-1.01,1.63-1.95,1.63h-.01Z"/>
  <path class="cls-3" d="M9.61,16.16c-.47,0-.94-.17-1.32-.51-1.76-1.58-2.69-3.47-2.69-5.49,0-2.27,1.22-4.43,3.43-6.09.88-.66,2.12-.48,2.78.4s.48,2.12-.4,2.78c-.84.63-1.84,1.65-1.84,2.91,0,1.08.75,1.97,1.37,2.53.82.73.89,1.99.16,2.8-.39.44-.94.66-1.48.66h0Z"/>
  <path class="cls-3" d="M30.83,15.51c-.47,0-.93-.16-1.31-.5-.82-.72-.9-1.98-.18-2.8.59-.67.89-1.36.89-2.04,0-1.16-.85-2.11-1.57-2.7-.85-.7-.96-1.95-.26-2.8.7-.85,1.95-.96,2.8-.26,1.97,1.63,3.01,3.62,3.01,5.76,0,1.66-.65,3.27-1.88,4.67-.39.45-.94.67-1.49.67h0Z"/>
  <ellipse class="cls-2" cx="20.01" cy="14.24" rx="6.88" ry="4.56"/>
  <path class="cls-3" d="M19.9,20.39c-1.64,0-3.25-.17-4.79-.52-1.07-.24-1.74-1.3-1.51-2.37.24-1.07,1.3-1.74,2.37-1.51,1.25.28,2.57.42,3.92.42,1.57,0,3.09-.19,4.5-.56,1.06-.28,2.15.35,2.43,1.41.28,1.06-.35,2.15-1.41,2.43-1.75.46-3.6.69-5.52.69h.01Z"/>
  <path class="cls-2" d="M19.75,29.92c-2.92,0-5.86-.9-8.81-2.7-.53-.33-.7-1.03-.38-1.56.33-.53,1.03-.7,1.56-.38,5.42,3.31,10.6,3.16,15.84-.48.51-.36,1.22-.23,1.58.28s.23,1.22-.28,1.58c-3.13,2.17-6.3,3.26-9.51,3.26Z"/>
</svg>